<mxfile host="Electron" modified="2025-06-28T00:18:31.046Z" agent="Mozilla/5.0 (Windows NT 10.0; Win64; x64) AppleWebKit/537.36 (KHTML, like Gecko) draw.io/24.2.5 Chrome/120.0.6099.109 Electron/28.1.0 Safari/537.36" etag="wF9jOZGz597tr1EVpEtR" version="24.2.5" type="device">
  <diagram id="C5RBs43oDa-KdzZeNtuy" name="Page-1">
    <mxGraphModel dx="1562" dy="909" grid="1" gridSize="10" guides="1" tooltips="1" connect="1" arrows="1" fold="1" page="1" pageScale="1" pageWidth="1600" pageHeight="900" math="0" shadow="0">
      <root>
        <mxCell id="WIyWlLk6GJQsqaUBKTNV-0" />
        <mxCell id="WIyWlLk6GJQsqaUBKTNV-1" parent="WIyWlLk6GJQsqaUBKTNV-0" />
        <mxCell id="8PWBaJQ2w47DuJXOB8TB-170" value="" style="rounded=0;whiteSpace=wrap;html=1;fillColor=none;dashed=1;" parent="WIyWlLk6GJQsqaUBKTNV-1" vertex="1">
          <mxGeometry x="480" y="190" width="700" height="550" as="geometry" />
        </mxCell>
        <mxCell id="8PWBaJQ2w47DuJXOB8TB-177" value="" style="rounded=0;whiteSpace=wrap;html=1;fillColor=none;dashed=1;" parent="WIyWlLk6GJQsqaUBKTNV-1" vertex="1">
          <mxGeometry x="1190" y="260" width="250" height="490" as="geometry" />
        </mxCell>
        <mxCell id="8PWBaJQ2w47DuJXOB8TB-67" value="Environments" style="rounded=0;whiteSpace=wrap;html=1;fillColor=#dae8fc;strokeColor=#6c8ebf;" parent="WIyWlLk6GJQsqaUBKTNV-1" vertex="1">
          <mxGeometry x="265" y="210" width="90" height="30" as="geometry" />
        </mxCell>
        <mxCell id="8PWBaJQ2w47DuJXOB8TB-68" value="Boards" style="rounded=0;whiteSpace=wrap;html=1;fillColor=#d5e8d4;strokeColor=#82b366;" parent="WIyWlLk6GJQsqaUBKTNV-1" vertex="1">
          <mxGeometry x="265" y="250" width="90" height="30" as="geometry" />
        </mxCell>
        <mxCell id="8PWBaJQ2w47DuJXOB8TB-69" value="Configurations" style="rounded=0;whiteSpace=wrap;html=1;fillColor=#ffe6cc;strokeColor=#d79b00;" parent="WIyWlLk6GJQsqaUBKTNV-1" vertex="1">
          <mxGeometry x="265" y="290" width="90" height="30" as="geometry" />
        </mxCell>
        <mxCell id="8PWBaJQ2w47DuJXOB8TB-70" value="Miscellaneous" style="rounded=0;whiteSpace=wrap;html=1;" parent="WIyWlLk6GJQsqaUBKTNV-1" vertex="1">
          <mxGeometry x="265" y="170" width="90" height="30" as="geometry" />
        </mxCell>
        <mxCell id="8PWBaJQ2w47DuJXOB8TB-93" value="" style="shape=document;whiteSpace=wrap;html=1;boundedLbl=1;size=0.25;" parent="WIyWlLk6GJQsqaUBKTNV-1" vertex="1">
          <mxGeometry x="510" y="410" width="350" height="240" as="geometry" />
        </mxCell>
        <mxCell id="8PWBaJQ2w47DuJXOB8TB-94" value="Controller 1 Base" style="text;align=center;verticalAlign=top;spacingLeft=4;spacingRight=4;overflow=hidden;rotatable=0;points=[[0,0.5],[1,0.5]];portConstraint=eastwest;fillColor=#ffe6cc;strokeColor=#d79b00;" parent="WIyWlLk6GJQsqaUBKTNV-1" vertex="1">
          <mxGeometry x="560" y="449" width="100" height="26" as="geometry" />
        </mxCell>
        <mxCell id="8PWBaJQ2w47DuJXOB8TB-96" style="edgeStyle=orthogonalEdgeStyle;rounded=0;orthogonalLoop=1;jettySize=auto;html=1;exitX=0;exitY=0.5;exitDx=0;exitDy=0;entryX=0;entryY=0.5;entryDx=0;entryDy=0;" parent="WIyWlLk6GJQsqaUBKTNV-1" source="8PWBaJQ2w47DuJXOB8TB-95" target="8PWBaJQ2w47DuJXOB8TB-94" edge="1">
          <mxGeometry relative="1" as="geometry" />
        </mxCell>
        <mxCell id="8PWBaJQ2w47DuJXOB8TB-97" value="Extends" style="edgeLabel;html=1;align=center;verticalAlign=middle;resizable=0;points=[];" parent="8PWBaJQ2w47DuJXOB8TB-96" vertex="1" connectable="0">
          <mxGeometry x="0.0724" y="-1" relative="1" as="geometry">
            <mxPoint as="offset" />
          </mxGeometry>
        </mxCell>
        <mxCell id="8PWBaJQ2w47DuJXOB8TB-95" value="Controller 1 OTA" style="text;align=center;verticalAlign=top;spacingLeft=4;spacingRight=4;overflow=hidden;rotatable=0;points=[[0,0.5],[1,0.5]];portConstraint=eastwest;fillColor=#ffe6cc;strokeColor=#d79b00;" parent="WIyWlLk6GJQsqaUBKTNV-1" vertex="1">
          <mxGeometry x="560" y="492" width="100" height="26" as="geometry" />
        </mxCell>
        <mxCell id="8PWBaJQ2w47DuJXOB8TB-100" style="edgeStyle=orthogonalEdgeStyle;rounded=0;orthogonalLoop=1;jettySize=auto;html=1;exitX=0;exitY=0.5;exitDx=0;exitDy=0;entryX=1;entryY=0.5;entryDx=0;entryDy=0;" parent="WIyWlLk6GJQsqaUBKTNV-1" source="8PWBaJQ2w47DuJXOB8TB-98" target="8PWBaJQ2w47DuJXOB8TB-95" edge="1">
          <mxGeometry relative="1" as="geometry" />
        </mxCell>
        <mxCell id="8PWBaJQ2w47DuJXOB8TB-98" value="MicroROS Test" style="text;align=center;verticalAlign=top;spacingLeft=4;spacingRight=4;overflow=hidden;rotatable=0;points=[[0,0.5],[1,0.5]];portConstraint=eastwest;fillColor=#dae8fc;strokeColor=#6c8ebf;" parent="WIyWlLk6GJQsqaUBKTNV-1" vertex="1">
          <mxGeometry x="740" y="536" width="90" height="26" as="geometry" />
        </mxCell>
        <mxCell id="8PWBaJQ2w47DuJXOB8TB-101" style="edgeStyle=orthogonalEdgeStyle;rounded=0;orthogonalLoop=1;jettySize=auto;html=1;exitX=0;exitY=0.5;exitDx=0;exitDy=0;entryX=1;entryY=0.5;entryDx=0;entryDy=0;" parent="WIyWlLk6GJQsqaUBKTNV-1" source="8PWBaJQ2w47DuJXOB8TB-99" target="8PWBaJQ2w47DuJXOB8TB-95" edge="1">
          <mxGeometry relative="1" as="geometry" />
        </mxCell>
        <mxCell id="8PWBaJQ2w47DuJXOB8TB-102" value="Extends" style="edgeLabel;html=1;align=center;verticalAlign=middle;resizable=0;points=[];" parent="8PWBaJQ2w47DuJXOB8TB-101" vertex="1" connectable="0">
          <mxGeometry x="0.2317" y="-2" relative="1" as="geometry">
            <mxPoint x="-1" y="-11" as="offset" />
          </mxGeometry>
        </mxCell>
        <mxCell id="8PWBaJQ2w47DuJXOB8TB-99" value="OTA Followup" style="text;align=center;verticalAlign=top;spacingLeft=4;spacingRight=4;overflow=hidden;rotatable=0;points=[[0,0.5],[1,0.5]];portConstraint=eastwest;fillColor=#dae8fc;strokeColor=#6c8ebf;" parent="WIyWlLk6GJQsqaUBKTNV-1" vertex="1">
          <mxGeometry x="740" y="492" width="90" height="26" as="geometry" />
        </mxCell>
        <mxCell id="8PWBaJQ2w47DuJXOB8TB-104" style="edgeStyle=orthogonalEdgeStyle;rounded=0;orthogonalLoop=1;jettySize=auto;html=1;exitX=0;exitY=0.5;exitDx=0;exitDy=0;entryX=1;entryY=0.5;entryDx=0;entryDy=0;" parent="WIyWlLk6GJQsqaUBKTNV-1" source="8PWBaJQ2w47DuJXOB8TB-103" target="8PWBaJQ2w47DuJXOB8TB-94" edge="1">
          <mxGeometry relative="1" as="geometry" />
        </mxCell>
        <mxCell id="8PWBaJQ2w47DuJXOB8TB-105" value="Extends" style="edgeLabel;html=1;align=center;verticalAlign=middle;resizable=0;points=[];" parent="8PWBaJQ2w47DuJXOB8TB-104" vertex="1" connectable="0">
          <mxGeometry x="-0.054" y="-1" relative="1" as="geometry">
            <mxPoint x="-12" y="-12" as="offset" />
          </mxGeometry>
        </mxCell>
        <mxCell id="8PWBaJQ2w47DuJXOB8TB-103" value="OTA Initial" style="text;align=center;verticalAlign=top;spacingLeft=4;spacingRight=4;overflow=hidden;rotatable=0;points=[[0,0.5],[1,0.5]];portConstraint=eastwest;fillColor=#dae8fc;strokeColor=#6c8ebf;" parent="WIyWlLk6GJQsqaUBKTNV-1" vertex="1">
          <mxGeometry x="740" y="449" width="90" height="26" as="geometry" />
        </mxCell>
        <mxCell id="8PWBaJQ2w47DuJXOB8TB-106" value="&lt;i&gt;controller_1.ini&lt;/i&gt;" style="text;html=1;align=left;verticalAlign=middle;whiteSpace=wrap;rounded=0;" parent="WIyWlLk6GJQsqaUBKTNV-1" vertex="1">
          <mxGeometry x="510" y="380" width="90" height="30" as="geometry" />
        </mxCell>
        <mxCell id="8PWBaJQ2w47DuJXOB8TB-108" value="" style="shape=document;whiteSpace=wrap;html=1;boundedLbl=1;size=0.25;" parent="WIyWlLk6GJQsqaUBKTNV-1" vertex="1">
          <mxGeometry x="155" y="425" width="240" height="100" as="geometry" />
        </mxCell>
        <mxCell id="8PWBaJQ2w47DuJXOB8TB-109" value="&lt;i&gt;platformio.ini&lt;/i&gt;" style="text;html=1;align=left;verticalAlign=middle;whiteSpace=wrap;rounded=0;" parent="WIyWlLk6GJQsqaUBKTNV-1" vertex="1">
          <mxGeometry x="155" y="395" width="90" height="30" as="geometry" />
        </mxCell>
        <mxCell id="8PWBaJQ2w47DuJXOB8TB-110" value="Description" style="rounded=0;whiteSpace=wrap;html=1;" parent="WIyWlLk6GJQsqaUBKTNV-1" vertex="1">
          <mxGeometry x="175" y="445" width="90" height="30" as="geometry" />
        </mxCell>
        <mxCell id="8PWBaJQ2w47DuJXOB8TB-111" value="Extra Configs" style="rounded=0;whiteSpace=wrap;html=1;" parent="WIyWlLk6GJQsqaUBKTNV-1" vertex="1">
          <mxGeometry x="285" y="445" width="90" height="30" as="geometry" />
        </mxCell>
        <mxCell id="8PWBaJQ2w47DuJXOB8TB-114" value="Applications" style="rounded=0;whiteSpace=wrap;html=1;fillColor=#e1d5e7;strokeColor=#9673a6;" parent="WIyWlLk6GJQsqaUBKTNV-1" vertex="1">
          <mxGeometry x="265" y="330" width="90" height="30" as="geometry" />
        </mxCell>
        <mxCell id="8PWBaJQ2w47DuJXOB8TB-143" value="" style="shape=document;whiteSpace=wrap;html=1;boundedLbl=1;size=0.25;" parent="WIyWlLk6GJQsqaUBKTNV-1" vertex="1">
          <mxGeometry x="970" y="292" width="180" height="108" as="geometry" />
        </mxCell>
        <mxCell id="8PWBaJQ2w47DuJXOB8TB-156" value="&lt;i&gt;ethernet_ota_initial.ini&lt;/i&gt;" style="text;html=1;align=left;verticalAlign=middle;whiteSpace=wrap;rounded=0;" parent="WIyWlLk6GJQsqaUBKTNV-1" vertex="1">
          <mxGeometry x="970" y="262" width="150" height="30" as="geometry" />
        </mxCell>
        <mxCell id="8PWBaJQ2w47DuJXOB8TB-180" style="edgeStyle=orthogonalEdgeStyle;rounded=0;orthogonalLoop=1;jettySize=auto;html=1;exitX=1;exitY=0.5;exitDx=0;exitDy=0;entryX=0;entryY=0.5;entryDx=0;entryDy=0;" parent="WIyWlLk6GJQsqaUBKTNV-1" source="8PWBaJQ2w47DuJXOB8TB-157" target="1KCqlggKn9DZhU6jMKvM-0" edge="1">
          <mxGeometry relative="1" as="geometry">
            <mxPoint x="1260" y="335" as="targetPoint" />
          </mxGeometry>
        </mxCell>
        <mxCell id="8PWBaJQ2w47DuJXOB8TB-181" value="Includes" style="edgeLabel;html=1;align=center;verticalAlign=middle;resizable=0;points=[];" parent="8PWBaJQ2w47DuJXOB8TB-180" vertex="1" connectable="0">
          <mxGeometry x="0.2795" y="1" relative="1" as="geometry">
            <mxPoint x="7" y="-14" as="offset" />
          </mxGeometry>
        </mxCell>
        <mxCell id="8PWBaJQ2w47DuJXOB8TB-157" value="Ethernet OTA Initial" style="rounded=0;whiteSpace=wrap;html=1;fillColor=#ffe6cc;strokeColor=#d79b00;" parent="WIyWlLk6GJQsqaUBKTNV-1" vertex="1">
          <mxGeometry x="990" y="320" width="140" height="30" as="geometry" />
        </mxCell>
        <mxCell id="8PWBaJQ2w47DuJXOB8TB-158" style="edgeStyle=orthogonalEdgeStyle;rounded=0;orthogonalLoop=1;jettySize=auto;html=1;exitX=1;exitY=0.5;exitDx=0;exitDy=0;entryX=0;entryY=0.5;entryDx=0;entryDy=0;" parent="WIyWlLk6GJQsqaUBKTNV-1" source="8PWBaJQ2w47DuJXOB8TB-103" target="8PWBaJQ2w47DuJXOB8TB-157" edge="1">
          <mxGeometry relative="1" as="geometry" />
        </mxCell>
        <mxCell id="8PWBaJQ2w47DuJXOB8TB-159" value="Extends" style="edgeLabel;html=1;align=center;verticalAlign=middle;resizable=0;points=[];" parent="8PWBaJQ2w47DuJXOB8TB-158" vertex="1" connectable="0">
          <mxGeometry x="0.6899" y="1" relative="1" as="geometry">
            <mxPoint x="-12" y="-14" as="offset" />
          </mxGeometry>
        </mxCell>
        <mxCell id="8PWBaJQ2w47DuJXOB8TB-160" value="" style="shape=document;whiteSpace=wrap;html=1;boundedLbl=1;size=0.25;" parent="WIyWlLk6GJQsqaUBKTNV-1" vertex="1">
          <mxGeometry x="970" y="461" width="180" height="108" as="geometry" />
        </mxCell>
        <mxCell id="8PWBaJQ2w47DuJXOB8TB-161" value="&lt;i&gt;ethernet_ota_followup.ini&lt;/i&gt;" style="text;html=1;align=left;verticalAlign=middle;whiteSpace=wrap;rounded=0;" parent="WIyWlLk6GJQsqaUBKTNV-1" vertex="1">
          <mxGeometry x="970" y="431" width="150" height="30" as="geometry" />
        </mxCell>
        <mxCell id="8PWBaJQ2w47DuJXOB8TB-186" style="edgeStyle=orthogonalEdgeStyle;rounded=0;orthogonalLoop=1;jettySize=auto;html=1;exitX=1;exitY=0.5;exitDx=0;exitDy=0;entryX=0;entryY=0.5;entryDx=0;entryDy=0;" parent="WIyWlLk6GJQsqaUBKTNV-1" source="8PWBaJQ2w47DuJXOB8TB-162" target="1KCqlggKn9DZhU6jMKvM-1" edge="1">
          <mxGeometry relative="1" as="geometry">
            <mxPoint x="1260" y="505" as="targetPoint" />
          </mxGeometry>
        </mxCell>
        <mxCell id="8PWBaJQ2w47DuJXOB8TB-187" value="Includes" style="edgeLabel;html=1;align=center;verticalAlign=middle;resizable=0;points=[];" parent="8PWBaJQ2w47DuJXOB8TB-186" vertex="1" connectable="0">
          <mxGeometry x="0.3436" y="3" relative="1" as="geometry">
            <mxPoint x="3" y="-7" as="offset" />
          </mxGeometry>
        </mxCell>
        <mxCell id="8PWBaJQ2w47DuJXOB8TB-162" value="Ethernet OTA Followup" style="rounded=0;whiteSpace=wrap;html=1;fillColor=#ffe6cc;strokeColor=#d79b00;" parent="WIyWlLk6GJQsqaUBKTNV-1" vertex="1">
          <mxGeometry x="990" y="490" width="140" height="30" as="geometry" />
        </mxCell>
        <mxCell id="8PWBaJQ2w47DuJXOB8TB-163" style="edgeStyle=orthogonalEdgeStyle;rounded=0;orthogonalLoop=1;jettySize=auto;html=1;exitX=1;exitY=0.5;exitDx=0;exitDy=0;entryX=0;entryY=0.5;entryDx=0;entryDy=0;" parent="WIyWlLk6GJQsqaUBKTNV-1" source="8PWBaJQ2w47DuJXOB8TB-99" target="8PWBaJQ2w47DuJXOB8TB-162" edge="1">
          <mxGeometry relative="1" as="geometry" />
        </mxCell>
        <mxCell id="8PWBaJQ2w47DuJXOB8TB-164" value="Extends" style="edgeLabel;html=1;align=center;verticalAlign=middle;resizable=0;points=[];" parent="8PWBaJQ2w47DuJXOB8TB-163" vertex="1" connectable="0">
          <mxGeometry x="0.28" y="1" relative="1" as="geometry">
            <mxPoint x="5" y="-12" as="offset" />
          </mxGeometry>
        </mxCell>
        <mxCell id="8PWBaJQ2w47DuJXOB8TB-165" value="" style="shape=document;whiteSpace=wrap;html=1;boundedLbl=1;size=0.25;" parent="WIyWlLk6GJQsqaUBKTNV-1" vertex="1">
          <mxGeometry x="970" y="620" width="180" height="108" as="geometry" />
        </mxCell>
        <mxCell id="8PWBaJQ2w47DuJXOB8TB-166" value="&lt;i&gt;micro_ros_test.ini&lt;/i&gt;" style="text;html=1;align=left;verticalAlign=middle;whiteSpace=wrap;rounded=0;" parent="WIyWlLk6GJQsqaUBKTNV-1" vertex="1">
          <mxGeometry x="970" y="590" width="150" height="30" as="geometry" />
        </mxCell>
        <mxCell id="8PWBaJQ2w47DuJXOB8TB-185" style="edgeStyle=orthogonalEdgeStyle;rounded=0;orthogonalLoop=1;jettySize=auto;html=1;exitX=1;exitY=0.5;exitDx=0;exitDy=0;entryX=0;entryY=0.5;entryDx=0;entryDy=0;" parent="WIyWlLk6GJQsqaUBKTNV-1" source="8PWBaJQ2w47DuJXOB8TB-167" target="1KCqlggKn9DZhU6jMKvM-3" edge="1">
          <mxGeometry relative="1" as="geometry">
            <mxPoint x="1260" y="663" as="targetPoint" />
          </mxGeometry>
        </mxCell>
        <mxCell id="8PWBaJQ2w47DuJXOB8TB-188" value="Includes" style="edgeLabel;html=1;align=center;verticalAlign=middle;resizable=0;points=[];" parent="8PWBaJQ2w47DuJXOB8TB-185" vertex="1" connectable="0">
          <mxGeometry x="0.6" y="3" relative="1" as="geometry">
            <mxPoint x="-14" y="-10" as="offset" />
          </mxGeometry>
        </mxCell>
        <mxCell id="8PWBaJQ2w47DuJXOB8TB-167" value="Micro ROS Test" style="rounded=0;whiteSpace=wrap;html=1;fillColor=#ffe6cc;strokeColor=#d79b00;" parent="WIyWlLk6GJQsqaUBKTNV-1" vertex="1">
          <mxGeometry x="990" y="648" width="140" height="30" as="geometry" />
        </mxCell>
        <mxCell id="8PWBaJQ2w47DuJXOB8TB-168" style="edgeStyle=orthogonalEdgeStyle;rounded=0;orthogonalLoop=1;jettySize=auto;html=1;exitX=1;exitY=0.5;exitDx=0;exitDy=0;entryX=0;entryY=0.5;entryDx=0;entryDy=0;" parent="WIyWlLk6GJQsqaUBKTNV-1" source="8PWBaJQ2w47DuJXOB8TB-98" target="8PWBaJQ2w47DuJXOB8TB-167" edge="1">
          <mxGeometry relative="1" as="geometry" />
        </mxCell>
        <mxCell id="8PWBaJQ2w47DuJXOB8TB-169" value="Extends" style="edgeLabel;html=1;align=center;verticalAlign=middle;resizable=0;points=[];" parent="8PWBaJQ2w47DuJXOB8TB-168" vertex="1" connectable="0">
          <mxGeometry x="0.7088" y="3" relative="1" as="geometry">
            <mxPoint x="-7" y="-12" as="offset" />
          </mxGeometry>
        </mxCell>
        <mxCell id="8PWBaJQ2w47DuJXOB8TB-171" value="PlatformIO Environment Files" style="text;html=1;align=left;verticalAlign=middle;whiteSpace=wrap;rounded=0;" parent="WIyWlLk6GJQsqaUBKTNV-1" vertex="1">
          <mxGeometry x="480" y="160" width="170" height="30" as="geometry" />
        </mxCell>
        <mxCell id="8PWBaJQ2w47DuJXOB8TB-172" style="edgeStyle=orthogonalEdgeStyle;rounded=0;orthogonalLoop=1;jettySize=auto;html=1;exitX=1;exitY=0.5;exitDx=0;exitDy=0;entryX=0.001;entryY=0.491;entryDx=0;entryDy=0;entryPerimeter=0;" parent="WIyWlLk6GJQsqaUBKTNV-1" source="8PWBaJQ2w47DuJXOB8TB-111" target="8PWBaJQ2w47DuJXOB8TB-170" edge="1">
          <mxGeometry relative="1" as="geometry" />
        </mxCell>
        <mxCell id="8PWBaJQ2w47DuJXOB8TB-173" value="Imports" style="edgeLabel;html=1;align=center;verticalAlign=middle;resizable=0;points=[];" parent="8PWBaJQ2w47DuJXOB8TB-172" vertex="1" connectable="0">
          <mxGeometry x="0.2649" y="-1" relative="1" as="geometry">
            <mxPoint x="-1" y="-11" as="offset" />
          </mxGeometry>
        </mxCell>
        <mxCell id="8PWBaJQ2w47DuJXOB8TB-174" value="" style="rounded=0;whiteSpace=wrap;html=1;fillColor=none;dashed=1;strokeColor=#000000;" parent="WIyWlLk6GJQsqaUBKTNV-1" vertex="1">
          <mxGeometry x="720" y="431" width="130" height="149" as="geometry" />
        </mxCell>
        <mxCell id="8PWBaJQ2w47DuJXOB8TB-178" value="Application Source Code" style="text;html=1;align=left;verticalAlign=middle;whiteSpace=wrap;rounded=0;" parent="WIyWlLk6GJQsqaUBKTNV-1" vertex="1">
          <mxGeometry x="1190" y="220" width="170" height="30" as="geometry" />
        </mxCell>
        <mxCell id="8PWBaJQ2w47DuJXOB8TB-189" value="" style="shape=flexArrow;endArrow=classic;html=1;rounded=0;exitX=0.456;exitY=0.924;exitDx=0;exitDy=0;exitPerimeter=0;entryX=0.5;entryY=0;entryDx=0;entryDy=0;" parent="WIyWlLk6GJQsqaUBKTNV-1" source="8PWBaJQ2w47DuJXOB8TB-108" target="8PWBaJQ2w47DuJXOB8TB-190" edge="1">
          <mxGeometry width="50" height="50" relative="1" as="geometry">
            <mxPoint x="755" y="445" as="sourcePoint" />
            <mxPoint x="264" y="595" as="targetPoint" />
          </mxGeometry>
        </mxCell>
        <mxCell id="8PWBaJQ2w47DuJXOB8TB-190" value="&amp;nbsp;PlatformIO Project&amp;nbsp;" style="text;html=1;align=center;verticalAlign=middle;whiteSpace=wrap;rounded=0;" parent="WIyWlLk6GJQsqaUBKTNV-1" vertex="1">
          <mxGeometry x="205" y="605" width="120" height="30" as="geometry" />
        </mxCell>
        <mxCell id="8PWBaJQ2w47DuJXOB8TB-193" value="" style="shape=document;whiteSpace=wrap;html=1;boundedLbl=1;size=0.25;" parent="WIyWlLk6GJQsqaUBKTNV-1" vertex="1">
          <mxGeometry x="530" y="240" width="180" height="120" as="geometry" />
        </mxCell>
        <mxCell id="8PWBaJQ2w47DuJXOB8TB-194" value="Common" style="text;align=center;verticalAlign=top;spacingLeft=4;spacingRight=4;overflow=hidden;rotatable=0;points=[[0,0.5],[1,0.5]];portConstraint=eastwest;fillColor=#ffe6cc;strokeColor=#d79b00;" parent="WIyWlLk6GJQsqaUBKTNV-1" vertex="1">
          <mxGeometry x="570" y="250.5" width="100" height="26" as="geometry" />
        </mxCell>
        <mxCell id="8PWBaJQ2w47DuJXOB8TB-197" value="ESP32-P4 Base" style="text;align=center;verticalAlign=top;spacingLeft=4;spacingRight=4;overflow=hidden;rotatable=0;points=[[0,0.5],[1,0.5]];portConstraint=eastwest;fillColor=#d5e8d4;strokeColor=#82b366;" parent="WIyWlLk6GJQsqaUBKTNV-1" vertex="1">
          <mxGeometry x="570" y="293.5" width="100" height="26" as="geometry" />
        </mxCell>
        <mxCell id="8PWBaJQ2w47DuJXOB8TB-206" value="&lt;i&gt;common.ini&lt;/i&gt;" style="text;html=1;align=left;verticalAlign=middle;whiteSpace=wrap;rounded=0;" parent="WIyWlLk6GJQsqaUBKTNV-1" vertex="1">
          <mxGeometry x="530" y="210" width="90" height="30" as="geometry" />
        </mxCell>
        <mxCell id="8PWBaJQ2w47DuJXOB8TB-208" value="" style="endArrow=classic;html=1;rounded=0;exitX=0.499;exitY=0.029;exitDx=0;exitDy=0;exitPerimeter=0;entryX=0.403;entryY=1.014;entryDx=0;entryDy=0;entryPerimeter=0;" parent="WIyWlLk6GJQsqaUBKTNV-1" source="8PWBaJQ2w47DuJXOB8TB-94" target="8PWBaJQ2w47DuJXOB8TB-197" edge="1">
          <mxGeometry width="50" height="50" relative="1" as="geometry">
            <mxPoint x="610" y="420" as="sourcePoint" />
            <mxPoint x="660" y="370" as="targetPoint" />
          </mxGeometry>
        </mxCell>
        <mxCell id="8PWBaJQ2w47DuJXOB8TB-209" value="Extends" style="edgeLabel;html=1;align=center;verticalAlign=middle;resizable=0;points=[];" parent="8PWBaJQ2w47DuJXOB8TB-208" vertex="1" connectable="0">
          <mxGeometry x="0.3225" y="2" relative="1" as="geometry">
            <mxPoint x="32" y="6" as="offset" />
          </mxGeometry>
        </mxCell>
        <mxCell id="8PWBaJQ2w47DuJXOB8TB-210" style="edgeStyle=orthogonalEdgeStyle;rounded=0;orthogonalLoop=1;jettySize=auto;html=1;exitX=0.5;exitY=0;exitDx=0;exitDy=0;entryX=1;entryY=0.5;entryDx=0;entryDy=0;" parent="WIyWlLk6GJQsqaUBKTNV-1" source="8PWBaJQ2w47DuJXOB8TB-174" target="8PWBaJQ2w47DuJXOB8TB-194" edge="1">
          <mxGeometry relative="1" as="geometry" />
        </mxCell>
        <mxCell id="8PWBaJQ2w47DuJXOB8TB-211" value="References" style="edgeLabel;html=1;align=center;verticalAlign=middle;resizable=0;points=[];" parent="8PWBaJQ2w47DuJXOB8TB-210" vertex="1" connectable="0">
          <mxGeometry x="0.3853" y="-1" relative="1" as="geometry">
            <mxPoint y="-12" as="offset" />
          </mxGeometry>
        </mxCell>
        <mxCell id="1KCqlggKn9DZhU6jMKvM-0" value="Ethernet OTA&amp;nbsp;&lt;span style=&quot;background-color: initial;&quot;&gt;Initial&lt;/span&gt;" style="shape=parallelogram;perimeter=parallelogramPerimeter;whiteSpace=wrap;html=1;fixedSize=1;fillColor=#e1d5e7;strokeColor=#9673a6;" parent="WIyWlLk6GJQsqaUBKTNV-1" vertex="1">
          <mxGeometry x="1255" y="305" width="145" height="60" as="geometry" />
        </mxCell>
        <mxCell id="1KCqlggKn9DZhU6jMKvM-1" value="Ethernet OTA&amp;nbsp;&lt;div&gt;&lt;span style=&quot;background-color: initial;&quot;&gt;Followup&lt;/span&gt;&lt;/div&gt;" style="shape=parallelogram;perimeter=parallelogramPerimeter;whiteSpace=wrap;html=1;fixedSize=1;fillColor=#e1d5e7;strokeColor=#9673a6;" parent="WIyWlLk6GJQsqaUBKTNV-1" vertex="1">
          <mxGeometry x="1255" y="475" width="145" height="60" as="geometry" />
        </mxCell>
        <mxCell id="1KCqlggKn9DZhU6jMKvM-3" value="Micro ROS Test" style="shape=parallelogram;perimeter=parallelogramPerimeter;whiteSpace=wrap;html=1;fixedSize=1;fillColor=#e1d5e7;strokeColor=#9673a6;" parent="WIyWlLk6GJQsqaUBKTNV-1" vertex="1">
          <mxGeometry x="1255" y="633" width="145" height="60" as="geometry" />
        </mxCell>
      </root>
    </mxGraphModel>
  </diagram>
</mxfile>
